<svg width="24" height="24" viewBox="0 0 24 24" fill="none" xmlns="http://www.w3.org/2000/svg">
<path d="M22.5914 11.772C22.6176 11.7608 22.6404 11.7427 22.6571 11.7196C22.6739 11.6966 22.6842 11.6694 22.6868 11.6409C22.6894 11.6125 22.6843 11.5839 22.672 11.5582C22.6598 11.5324 22.6407 11.5104 22.617 11.4946L21.4962 10.7464C21.4202 10.6956 21.362 10.6222 21.33 10.5366C21.298 10.451 21.2937 10.3575 21.3178 10.2693L21.5903 9.27108C21.6163 9.17591 21.6092 9.07473 21.5702 8.98412C21.5312 8.8935 21.4626 8.8188 21.3756 8.77224L20.3341 8.21456C20.2454 8.16707 20.1759 8.09035 20.1374 7.99742C20.0988 7.90449 20.0936 7.80108 20.1226 7.70475L20.4502 6.61749C20.4793 6.52084 20.474 6.41709 20.4351 6.32394C20.3962 6.23079 20.3262 6.15404 20.237 6.10678L19.3218 5.62186C19.2404 5.57878 19.1749 5.51107 19.1344 5.42842C19.0939 5.34577 19.0807 5.25243 19.0965 5.16178L19.3302 3.82552C19.3351 3.79739 19.3324 3.76845 19.3222 3.74177C19.3121 3.71508 19.2949 3.69164 19.2725 3.67391C19.2501 3.65619 19.2233 3.64485 19.195 3.64109C19.1667 3.63733 19.1379 3.64129 19.1117 3.65255L1.31483 11.277C1.28858 11.2882 1.26586 11.3063 1.24906 11.3294C1.23225 11.3525 1.222 11.3797 1.21939 11.4081C1.21677 11.4365 1.22188 11.4651 1.23419 11.4909C1.24649 11.5167 1.26553 11.5386 1.28928 11.5545L2.41813 12.307C2.49469 12.3581 2.55313 12.432 2.58507 12.5183C2.61701 12.6046 2.62081 12.6988 2.59592 12.7874L2.31575 13.7844C2.28845 13.8816 2.29573 13.9853 2.33636 14.0777C2.37699 14.1701 2.44844 14.2455 2.5385 14.2911L3.5518 14.8039C3.64157 14.8493 3.71285 14.9244 3.75355 15.0164C3.79424 15.1084 3.80185 15.2117 3.77507 15.3086L3.46053 16.4472C3.43427 16.5423 3.44105 16.6435 3.47978 16.7342C3.51851 16.825 3.58688 16.8999 3.67372 16.9467L4.5845 17.438C4.66497 17.4814 4.72975 17.549 4.76967 17.6312C4.80959 17.7135 4.82262 17.8062 4.80692 17.8963L4.57564 19.2238C4.57075 19.2519 4.57354 19.2808 4.58372 19.3074C4.5939 19.3341 4.61109 19.3575 4.63347 19.3752C4.65585 19.3929 4.6826 19.4042 4.71089 19.408C4.73917 19.4117 4.76795 19.4078 4.79417 19.3965L22.5914 11.772Z" fill="#77FFA5"/>
<path d="M22.617 11.4946L21.4962 10.7464C21.4202 10.6956 21.362 10.6222 21.33 10.5366C21.298 10.451 21.2937 10.3575 21.3178 10.2693L21.5903 9.27108C21.6163 9.17591 21.6092 9.07473 21.5702 8.98412C21.5312 8.8935 21.4626 8.8188 21.3756 8.77224L20.3341 8.21456C20.2454 8.16707 20.1759 8.09035 20.1374 7.99742C20.0988 7.90449 20.0936 7.80108 20.1226 7.70475L20.4502 6.61749C20.4793 6.52084 20.474 6.41709 20.4351 6.32394C20.3962 6.23079 20.3262 6.15404 20.237 6.10678L19.3218 5.62186C19.2405 5.57878 19.1749 5.51107 19.1344 5.42842C19.0939 5.34577 19.0807 5.25243 19.0965 5.16178L19.3302 3.82552C19.3351 3.79739 19.3324 3.76845 19.3222 3.74177C19.3121 3.71508 19.2949 3.69164 19.2725 3.67391C19.2501 3.65619 19.2233 3.64485 19.195 3.64109C19.1667 3.63733 19.1379 3.64129 19.1117 3.65255L17.8604 4.18861L17.6903 5.16178C17.6744 5.25243 17.6877 5.34577 17.7282 5.42842C17.7686 5.51107 17.8342 5.57878 17.9155 5.62186L18.8308 6.10678C18.9199 6.15404 18.99 6.23079 19.0288 6.32394C19.0677 6.41709 19.0731 6.52084 19.0439 6.61749L18.7164 7.70475C18.6874 7.80108 18.6926 7.90449 18.7311 7.99742C18.7697 8.09035 18.8392 8.16707 18.9279 8.21456L19.9694 8.77224C20.0563 8.8188 20.1249 8.8935 20.1639 8.98412C20.2029 9.07473 20.21 9.17591 20.184 9.27108L19.9115 10.2693C19.8874 10.3575 19.8917 10.451 19.9238 10.5366C19.9558 10.6222 20.0139 10.6956 20.09 10.7464L21.2107 11.4946C21.2345 11.5104 21.2535 11.5324 21.2658 11.5582C21.2781 11.5839 21.2832 11.6125 21.2806 11.6409C21.278 11.6694 21.2677 11.6966 21.2509 11.7196C21.2341 11.7427 21.2114 11.7608 21.1851 11.772L4.63888 18.8606L4.5756 19.2237C4.57069 19.2518 4.57347 19.2807 4.58365 19.3074C4.59383 19.3341 4.61102 19.3575 4.63341 19.3752C4.6558 19.3929 4.68256 19.4042 4.71086 19.408C4.73916 19.4117 4.76795 19.4078 4.79418 19.3965L22.5914 11.772C22.6176 11.7608 22.6404 11.7427 22.6572 11.7196C22.674 11.6966 22.6842 11.6694 22.6868 11.6409C22.6894 11.6125 22.6843 11.5839 22.6721 11.5582C22.6598 11.5324 22.6407 11.5104 22.617 11.4946Z" fill="#25E767"/>
<path d="M23.4544 20.3605C23.4881 20.3605 23.5213 20.3513 23.5503 20.3341C23.5793 20.3168 23.6031 20.292 23.6192 20.2623C23.6353 20.2326 23.6431 20.1992 23.6417 20.1654C23.6404 20.1317 23.6299 20.0989 23.6115 20.0706L22.7413 18.7345C22.6822 18.6439 22.6532 18.5369 22.6583 18.4289C22.6634 18.3208 22.7023 18.2171 22.7696 18.1324L23.5312 17.1737C23.6038 17.0823 23.6432 16.9689 23.6431 16.8522C23.6429 16.7354 23.6031 16.6222 23.5302 16.531L22.6575 15.4391C22.5832 15.3461 22.5433 15.2303 22.5447 15.1112C22.546 14.9922 22.5885 14.8773 22.665 14.786L23.5281 13.7561C23.6048 13.6645 23.6473 13.5492 23.6484 13.4297C23.6495 13.3103 23.6091 13.1942 23.5342 13.1012L22.7648 12.1472C22.6965 12.0624 22.6567 11.9582 22.6512 11.8494C22.6458 11.7407 22.6748 11.633 22.7343 11.5418L23.6112 10.1972C23.6297 10.1689 23.6401 10.1362 23.6415 10.1024C23.6429 10.0687 23.6351 10.0352 23.619 10.0055C23.6029 9.97579 23.5791 9.95099 23.5501 9.9337C23.5211 9.91642 23.488 9.90729 23.4542 9.90729H16.2851C16.2415 9.9073 16.1984 9.91747 16.1594 9.93701L14.9383 10.5476C14.8992 10.5671 14.8562 10.5772 14.8125 10.5772C14.7688 10.5772 14.7258 10.5671 14.6867 10.5476L13.4656 9.93701C13.4266 9.91747 13.3835 9.9073 13.3399 9.90729H0.545859C0.512084 9.90729 0.478938 9.91642 0.449922 9.9337C0.420906 9.95099 0.397097 9.97579 0.381012 10.0055C0.364927 10.0352 0.357161 10.0687 0.358537 10.1024C0.359913 10.1362 0.370378 10.1689 0.388827 10.1972L1.26572 11.5418C1.32519 11.633 1.35426 11.7407 1.34877 11.8495C1.34328 11.9582 1.30351 12.0624 1.23516 12.1472L0.465843 13.1012C0.390858 13.1942 0.350473 13.3103 0.351585 13.4297C0.352696 13.5492 0.395235 13.6645 0.471937 13.7561L1.33495 14.786C1.41142 14.8772 1.45395 14.9922 1.45532 15.1112C1.4567 15.2302 1.41684 15.3461 1.3425 15.4391L0.46978 16.531C0.396896 16.6222 0.357115 16.7354 0.356945 16.8522C0.356775 16.9689 0.396225 17.0823 0.468843 17.1737L1.23037 18.1324C1.29766 18.2171 1.33661 18.3208 1.3417 18.4289C1.34679 18.5369 1.31776 18.6439 1.25873 18.7345L0.388499 20.0706C0.370071 20.0989 0.359625 20.1317 0.358266 20.1654C0.356908 20.1992 0.364686 20.2326 0.380779 20.2623C0.396873 20.292 0.420685 20.3168 0.4497 20.3341C0.478715 20.3513 0.511857 20.3605 0.545624 20.3605H13.3399C13.3835 20.3605 13.4266 20.3503 13.4656 20.3308L14.6867 19.7202C14.7258 19.7007 14.7688 19.6906 14.8125 19.6906C14.8562 19.6906 14.8992 19.7007 14.9383 19.7202L16.1594 20.3308C16.1984 20.3503 16.2415 20.3605 16.2851 20.3605H23.4544Z" fill="#25E767"/>
<path d="M23.5311 17.1737C23.6038 17.0823 23.6432 16.9689 23.643 16.8522C23.6429 16.7354 23.6031 16.6222 23.5302 16.531L22.6575 15.4391C22.5831 15.3461 22.5433 15.2303 22.5446 15.1112C22.546 14.9922 22.5885 14.8773 22.665 14.786L23.5281 13.7561C23.6048 13.6645 23.6473 13.5492 23.6484 13.4297C23.6495 13.3103 23.6091 13.1942 23.5341 13.1012L22.7648 12.1472C22.6965 12.0624 22.6567 11.9582 22.6512 11.8494C22.6458 11.7407 22.6748 11.633 22.7343 11.5418L23.6112 10.1972C23.6297 10.1689 23.6401 10.1362 23.6415 10.1024C23.6429 10.0687 23.6351 10.0352 23.619 10.0055C23.6029 9.97577 23.5791 9.95097 23.5501 9.93369C23.5211 9.9164 23.4879 9.90728 23.4541 9.90729H22.0479C22.0817 9.90729 22.1148 9.91642 22.1438 9.9337C22.1728 9.95099 22.1966 9.97579 22.2127 10.0055C22.2288 10.0352 22.2366 10.0687 22.2352 10.1024C22.2338 10.1362 22.2234 10.1689 22.2049 10.1972L21.3281 11.5419C21.2686 11.6331 21.2395 11.7407 21.245 11.8495C21.2505 11.9582 21.2902 12.0624 21.3586 12.1472L22.128 13.1012C22.203 13.1942 22.2433 13.3103 22.2422 13.4297C22.2411 13.5492 22.1986 13.6645 22.1218 13.7561L21.2588 14.786C21.1824 14.8772 21.1398 14.9922 21.1385 15.1112C21.1371 15.2302 21.1769 15.3461 21.2513 15.4391L22.124 16.531C22.1969 16.6222 22.2367 16.7354 22.2368 16.8522C22.237 16.9689 22.1976 17.0823 22.1249 17.1737L21.3634 18.1324C21.2961 18.2171 21.2571 18.3208 21.2521 18.4289C21.247 18.5369 21.276 18.6439 21.3351 18.7345L22.2053 20.0706C22.2237 20.0989 22.2342 20.1317 22.2355 20.1654C22.2369 20.1992 22.2291 20.2326 22.213 20.2623C22.1969 20.292 22.1731 20.3168 22.1441 20.3341C22.1151 20.3513 22.0819 20.3605 22.0482 20.3605H23.4544C23.4882 20.3605 23.5213 20.3513 23.5503 20.3341C23.5793 20.3168 23.6032 20.292 23.6193 20.2623C23.6353 20.2326 23.6431 20.1992 23.6418 20.1654C23.6404 20.1317 23.63 20.0989 23.6115 20.0706L22.7413 18.7345C22.6823 18.6439 22.6532 18.5369 22.6583 18.4289C22.6634 18.3208 22.7023 18.2171 22.7696 18.1324L23.5311 17.1737Z" fill="#2ABD5C"/>
<path d="M17.1986 14.7215C16.9546 14.7215 16.7181 14.6369 16.5295 14.4822C16.3409 14.3274 16.2117 14.112 16.1641 13.8727C16.1165 13.6333 16.1534 13.3849 16.2684 13.1697C16.3834 12.9545 16.5695 12.7859 16.7949 12.6925C17.0203 12.5991 17.2711 12.5867 17.5047 12.6576C17.7382 12.7284 17.9399 12.878 18.0755 13.0809C18.211 13.2837 18.2721 13.5273 18.2482 13.7702C18.2243 14.013 18.1169 14.24 17.9444 14.4126C17.8467 14.5108 17.7304 14.5887 17.6024 14.6418C17.4744 14.6948 17.3371 14.7219 17.1986 14.7215ZM17.1986 13.3154C17.1408 13.3154 17.0839 13.3297 17.0329 13.357C16.9819 13.3842 16.9385 13.4236 16.9064 13.4717C16.8743 13.5197 16.8545 13.575 16.8489 13.6325C16.8432 13.69 16.8518 13.748 16.8739 13.8014C16.8961 13.8548 16.931 13.9019 16.9757 13.9386C17.0204 13.9753 17.0734 14.0003 17.1301 14.0116C17.1868 14.0229 17.2454 14.02 17.3007 14.0032C17.356 13.9865 17.4063 13.9563 17.4472 13.9154H17.4472C17.4964 13.8663 17.5299 13.8036 17.5435 13.7354C17.557 13.6672 17.5501 13.5966 17.5234 13.5323C17.4968 13.4681 17.4518 13.4132 17.3939 13.3746C17.3361 13.336 17.2681 13.3154 17.1986 13.3154ZM20.1328 17.6557C19.8888 17.6557 19.6523 17.5711 19.4637 17.4163C19.2751 17.2615 19.146 17.0461 19.0984 16.8068C19.0508 16.5675 19.0876 16.319 19.2027 16.1039C19.3177 15.8887 19.5038 15.72 19.7292 15.6266C19.9547 15.5333 20.2055 15.5209 20.439 15.5918C20.6725 15.6626 20.8742 15.8122 21.0098 16.0151C21.1453 16.218 21.2063 16.4616 21.1824 16.7044C21.1585 16.9473 21.0511 17.1743 20.8786 17.3468C20.7809 17.4451 20.6647 17.523 20.5367 17.576C20.4086 17.629 20.2714 17.6561 20.1328 17.6557ZM20.1328 16.2495C20.075 16.2495 20.0181 16.2638 19.9671 16.291C19.9161 16.3183 19.8726 16.3577 19.8405 16.4058C19.8084 16.4538 19.7886 16.5091 19.7829 16.5666C19.7772 16.6242 19.7859 16.6822 19.808 16.7356C19.8301 16.789 19.8651 16.8362 19.9098 16.8728C19.9545 16.9095 20.0075 16.9346 20.0642 16.9459C20.1209 16.9572 20.1795 16.9543 20.2349 16.9375C20.2902 16.9207 20.3405 16.8905 20.3814 16.8497V16.8496C20.4306 16.8005 20.464 16.7378 20.4776 16.6696C20.4912 16.6014 20.4842 16.5307 20.4576 16.4665C20.431 16.4023 20.3859 16.3474 20.3281 16.3087C20.2703 16.2701 20.2023 16.2495 20.1328 16.2495ZM16.9679 17.1344C16.8984 17.1344 16.8304 17.1138 16.7726 17.0751C16.7148 17.0365 16.6697 16.9816 16.6431 16.9173C16.6165 16.8531 16.6095 16.7824 16.6231 16.7142C16.6367 16.646 16.6702 16.5834 16.7193 16.5342L20.066 13.1876C20.1319 13.1216 20.2213 13.0846 20.3146 13.0846C20.4078 13.0846 20.4973 13.1216 20.5632 13.1875C20.6291 13.2535 20.6662 13.3429 20.6662 13.4361C20.6662 13.5294 20.6292 13.6188 20.5632 13.6848L17.2165 17.0314C17.1839 17.0641 17.1452 17.09 17.1025 17.1077C17.0598 17.1254 17.0141 17.1344 16.9679 17.1344ZM14.8125 18.8996C14.7193 18.8996 14.6298 18.8625 14.5639 18.7966C14.498 18.7307 14.4609 18.6412 14.4609 18.548V17.9542C14.4609 17.861 14.498 17.7716 14.5639 17.7056C14.6298 17.6397 14.7193 17.6027 14.8125 17.6027C14.9057 17.6027 14.9952 17.6397 15.0611 17.7056C15.127 17.7716 15.1641 17.861 15.1641 17.9542V18.548C15.1641 18.6412 15.127 18.7307 15.0611 18.7966C14.9952 18.8625 14.9057 18.8996 14.8125 18.8996ZM14.8125 16.8214C14.7193 16.8214 14.6298 16.7844 14.5639 16.7184C14.498 16.6525 14.4609 16.5631 14.4609 16.4698V15.8761C14.4609 15.7829 14.498 15.6935 14.5639 15.6275C14.6298 15.5616 14.7193 15.5246 14.8125 15.5246C14.9057 15.5246 14.9952 15.5616 15.0611 15.6275C15.127 15.6935 15.1641 15.7829 15.1641 15.8761V16.4698C15.1641 16.5631 15.127 16.6525 15.0611 16.7184C14.9952 16.7844 14.9057 16.8214 14.8125 16.8214ZM14.8125 14.7433C14.7193 14.7433 14.6298 14.7062 14.5639 14.6403C14.498 14.5744 14.4609 14.485 14.4609 14.3917V13.798C14.4609 13.7047 14.498 13.6153 14.5639 13.5494C14.6298 13.4834 14.7193 13.4464 14.8125 13.4464C14.9057 13.4464 14.9952 13.4834 15.0611 13.5494C15.127 13.6153 15.1641 13.7047 15.1641 13.798V14.3917C15.1641 14.485 15.127 14.5744 15.0611 14.6403C14.9952 14.7062 14.9057 14.7433 14.8125 14.7433ZM14.8125 12.6652C14.7193 12.6652 14.6298 12.6281 14.5639 12.5622C14.498 12.4963 14.4609 12.4069 14.4609 12.3136V11.7198C14.4609 11.6266 14.498 11.5372 14.5639 11.4713C14.6298 11.4053 14.7193 11.3683 14.8125 11.3683C14.9057 11.3683 14.9952 11.4053 15.0611 11.4713C15.127 11.5372 15.1641 11.6266 15.1641 11.7198V12.3136C15.1641 12.4069 15.127 12.4963 15.0611 12.5622C14.9952 12.6281 14.9057 12.6652 14.8125 12.6652Z" fill="white"/>
<path d="M12.2344 13.6221H4.1026C3.84372 13.6221 3.63385 13.8319 3.63385 14.0908V16.1771C3.63385 16.436 3.84372 16.6458 4.1026 16.6458H12.2344C12.4933 16.6458 12.7031 16.436 12.7031 16.1771V14.0908C12.7031 13.8319 12.4933 13.6221 12.2344 13.6221Z" fill="white"/>
<path d="M12.2344 13.6221H10.8281C10.9524 13.6221 11.0717 13.6715 11.1596 13.7594C11.2475 13.8473 11.2969 13.9665 11.2969 14.0908V16.177C11.2969 16.3014 11.2475 16.4206 11.1596 16.5085C11.0717 16.5964 10.9524 16.6458 10.8281 16.6458H12.2344C12.3587 16.6458 12.4779 16.5964 12.5658 16.5085C12.6537 16.4206 12.7031 16.3014 12.7031 16.177V14.0908C12.7031 13.9665 12.6537 13.8473 12.5658 13.7594C12.4779 13.6715 12.3587 13.6221 12.2344 13.6221Z" fill="#EEEEEE"/>
</svg>
