<svg width="24" height="24" viewBox="0 0 24 24" fill="none" xmlns="http://www.w3.org/2000/svg">
<g clip-path="url(#clip0_2040_18)">
<path d="M17.0301 12.9697C16.8894 12.8291 16.6987 12.7501 16.4998 12.7501C16.301 12.7501 16.1102 12.8291 15.9696 12.9697L15.3748 13.5645L9.31034 7.49996L13.2801 3.53021C13.4207 3.38957 13.4997 3.19883 13.4997 2.99996C13.4997 2.80109 13.4207 2.61036 13.2801 2.46971L11.7801 0.969712C11.6395 0.830284 11.4497 0.751832 11.2517 0.751341C11.0537 0.750849 10.8635 0.828358 10.7222 0.967087C10.7143 0.974962 9.91071 1.75009 8.91659 1.75009C8.34059 1.75009 7.80546 1.49471 7.28009 0.969712C7.13944 0.829109 6.94871 0.750122 6.74984 0.750122C6.55097 0.750122 6.36024 0.829109 6.21959 0.969712L0.21959 6.96971C0.0789866 7.11036 0 7.30109 0 7.49996C0 7.69883 0.0789866 7.88957 0.21959 8.03021L3.96959 11.7802C4.11584 11.9268 4.30784 12 4.49984 12C4.69184 12 4.88384 11.9268 5.03009 11.7802L8.24984 8.56046L14.3143 14.625L13.7196 15.2197C13.579 15.3604 13.5 15.5511 13.5 15.75C13.5 15.9488 13.579 16.1396 13.7196 16.2802L20.4696 23.0302C20.6158 23.1768 20.8078 23.25 20.9998 23.25C21.1918 23.25 21.3838 23.1768 21.5301 23.0302L23.7801 20.7802C23.9207 20.6396 23.9997 20.4488 23.9997 20.25C23.9997 20.0511 23.9207 19.8604 23.7801 19.7197L17.0301 12.9697ZM4.49984 10.1891L1.81071 7.49996L6.78884 2.52184C7.44696 3.00559 8.16021 3.24971 8.91659 3.24971C9.87359 3.24971 10.6791 2.84396 11.1898 2.50046L11.689 2.99996L4.49984 10.1891ZM20.9998 21.4391L15.3107 15.75L16.4998 14.5608L22.189 20.25L20.9998 21.4391Z" fill="#2E2D2D"/>
</g>
<defs>
<clipPath id="clip0_2040_18">
<rect width="24" height="24" fill="white"/>
</clipPath>
</defs>
</svg>
