<svg width="37" height="27" viewBox="0 0 37 27" fill="none" xmlns="http://www.w3.org/2000/svg">
<path d="M9.1 26.6398C6.76667 26.6398 4.66667 25.7065 2.8 23.8398C0.933334 21.9065 0 19.0731 0 15.3398C0 11.0731 1.13333 7.6065 3.4 4.93984C5.73333 2.20651 9.03333 0.839844 13.3 0.839844C14.8333 0.839844 16.0333 0.939842 16.9 1.13984V5.73984C15.9667 5.6065 14.7667 5.53984 13.3 5.53984C11.0333 5.53984 9.2 6.3065 7.8 7.83984C6.46667 9.17317 5.7 10.9398 5.5 13.1398C6.36667 12.0731 7.76667 11.5398 9.7 11.5398C11.7 11.5398 13.4 12.2398 14.8 13.6398C16.2 14.9731 16.9 16.7398 16.9 18.9398C16.9 21.2065 16.1667 23.0731 14.7 24.5398C13.2333 25.9398 11.3667 26.6398 9.1 26.6398ZM29 26.6398C26.6667 26.6398 24.5667 25.7065 22.7 23.8398C20.8333 21.9065 19.9 19.0731 19.9 15.3398C19.9 11.0731 21.0333 7.6065 23.3 4.93984C25.6333 2.20651 28.9333 0.839844 33.2 0.839844C34.7333 0.839844 35.9333 0.939842 36.8 1.13984V5.73984C35.8667 5.6065 34.6667 5.53984 33.2 5.53984C30.9333 5.53984 29.1 6.3065 27.7 7.83984C26.3667 9.17317 25.6 10.9398 25.4 13.1398C26.2667 12.0731 27.6667 11.5398 29.6 11.5398C31.6 11.5398 33.3 12.2398 34.7 13.6398C36.1 14.9731 36.8 16.7398 36.8 18.9398C36.8 21.2065 36.0667 23.0731 34.6 24.5398C33.1333 25.9398 31.2667 26.6398 29 26.6398Z" fill="#050B20"/>
</svg>
