<svg width="24" height="24" viewBox="0 0 24 24" fill="none" xmlns="http://www.w3.org/2000/svg">
<path d="M18.8156 8.1375C18.7868 7.56177 18.5381 7.01906 18.1208 6.62133C17.7036 6.22361 17.1496 6.0012 16.5731 6H15.7481V5.25C15.7481 4.25544 15.353 3.30161 14.6498 2.59835C13.9465 1.89509 12.9927 1.5 11.9981 1.5C11.0036 1.5 10.0497 1.89509 9.34648 2.59835C8.64322 3.30161 8.24813 4.25544 8.24813 5.25V6H7.42313C6.84538 5.99928 6.28949 6.22083 5.87063 6.61875C5.45176 7.01667 5.20201 7.56048 5.17313 8.1375L4.57313 20.1375C4.55787 20.4423 4.60478 20.747 4.711 21.0331C4.81722 21.3192 4.98053 21.5807 5.191 21.8017C5.40147 22.0227 5.6547 22.1986 5.93529 22.3186C6.21587 22.4387 6.51794 22.5004 6.82313 22.5H17.1731C17.4783 22.5004 17.7804 22.4387 18.061 22.3186C18.3416 22.1986 18.5948 22.0227 18.8053 21.8017C19.0157 21.5807 19.179 21.3192 19.2853 21.0331C19.3915 20.747 19.4384 20.4423 19.4231 20.1375L18.8156 8.1375ZM9.74813 5.25C9.74813 4.65326 9.98518 4.08097 10.4071 3.65901C10.8291 3.23705 11.4014 3 11.9981 3C12.5949 3 13.1672 3.23705 13.5891 3.65901C14.0111 4.08097 14.2481 4.65326 14.2481 5.25V6H9.74813V5.25ZM17.7131 20.7675C17.6434 20.8406 17.5597 20.8989 17.4669 20.9389C17.3741 20.9788 17.2742 20.9996 17.1731 21H6.82313C6.7221 20.9996 6.62219 20.9788 6.5294 20.9389C6.4366 20.8989 6.35284 20.8406 6.28313 20.7675C6.14912 20.6285 6.0739 20.4431 6.07313 20.25L6.67313 8.25C6.68276 8.05766 6.766 7.87639 6.90563 7.74375C7.04525 7.61111 7.23054 7.53726 7.42313 7.5375H8.24813V9.0375H7.49813V10.5375H10.4981V9H9.74813V7.5H14.2481V9H13.4981V10.5H16.4981V9H15.7481V7.5H16.5731C16.7657 7.49976 16.951 7.57361 17.0906 7.70625C17.2303 7.83889 17.3135 8.02016 17.3231 8.2125L17.9231 20.2125C17.9277 20.3144 17.9115 20.4162 17.8754 20.5117C17.8392 20.6071 17.784 20.6941 17.7131 20.7675Z" fill="#2E2D2D"/>
</svg>
