<svg width="24" height="24" viewBox="0 0 24 24" fill="none" xmlns="http://www.w3.org/2000/svg">
<path d="M19.5708 22.4337C18.7711 23.0034 13.6397 19.3926 12.657 19.3846C11.6742 19.3768 6.48509 22.9045 5.6947 22.3221C4.90431 21.7397 6.76248 15.7575 6.46635 14.8231C6.17023 13.8887 1.20198 10.0577 1.51319 9.12812C1.82448 8.19857 8.10422 8.11223 8.90394 7.5426C9.70365 6.97305 11.8223 1.07759 12.8051 1.08546C13.7878 1.09339 15.8107 7.02217 16.6011 7.60459C17.3915 8.18694 23.6691 8.37439 23.9653 9.3088C24.2614 10.2432 19.2319 13.9938 18.9206 14.9233C18.6094 15.8529 20.3705 21.8641 19.5708 22.4337Z" fill="#F8B84E"/>
</svg>
