<svg width="24" height="24" viewBox="0 0 24 24" fill="none" xmlns="http://www.w3.org/2000/svg">
<g clip-path="url(#clip0_2040_3)">
<path d="M22.5056 13.759C22.1354 13.2474 21.9361 12.632 21.9361 12.0005C21.9361 11.3691 22.1354 10.7537 22.5056 10.242L23.2696 9.18704C23.3621 9.05939 23.4232 8.91165 23.4478 8.75588C23.4724 8.60011 23.4598 8.44074 23.411 8.29077C23.3623 8.1408 23.2788 8.00449 23.1673 7.89296C23.0558 7.78143 22.9195 7.69785 22.7696 7.64904L21.5406 7.24904C20.9385 7.0541 20.4137 6.67333 20.0416 6.16144C19.6695 5.64955 19.4692 5.03289 19.4696 4.40004V3.10004C19.4696 2.94239 19.4324 2.78696 19.3609 2.64643C19.2894 2.5059 19.1857 2.38427 19.0583 2.29145C18.9309 2.19862 18.7833 2.13725 18.6276 2.11233C18.472 2.0874 18.3126 2.09964 18.1626 2.14804L16.9176 2.54804C16.3163 2.74179 15.6693 2.74082 15.0687 2.54528C14.4681 2.34974 13.9445 1.9696 13.5726 1.45904L12.8076 0.411044C12.7104 0.290238 12.5873 0.192761 12.4475 0.125788C12.3077 0.058814 12.1546 0.0240479 11.9996 0.0240479C11.8445 0.0240479 11.6914 0.058814 11.5516 0.125788C11.4118 0.192761 11.2887 0.290238 11.1916 0.411044L10.4266 1.46104C10.0546 1.9716 9.53105 2.35174 8.93042 2.54728C8.32979 2.74282 7.68276 2.74379 7.08155 2.55004L5.83655 2.15004C5.68667 2.1017 5.52749 2.08943 5.37197 2.11425C5.21645 2.13906 5.06899 2.20026 4.9416 2.29286C4.81421 2.38545 4.71049 2.50682 4.63889 2.64709C4.56728 2.78736 4.52982 2.94256 4.52955 3.10004V4.40004C4.52988 5.03289 4.32961 5.64955 3.9575 6.16144C3.5854 6.67333 3.06062 7.0541 2.45855 7.24904L1.22955 7.64904C1.0796 7.69785 0.943316 7.78143 0.831829 7.89296C0.720342 8.00449 0.636811 8.1408 0.588056 8.29077C0.539301 8.44074 0.526705 8.60011 0.551296 8.75588C0.575887 8.91165 0.636968 9.05939 0.729551 9.18704L1.49355 10.241C1.86371 10.7527 2.06298 11.3681 2.06298 11.9995C2.06298 12.631 1.86371 13.2464 1.49355 13.758L0.729551 14.813C0.636968 14.9407 0.575887 15.0884 0.551296 15.2442C0.526705 15.4 0.539301 15.5593 0.588056 15.7093C0.636811 15.8593 0.720342 15.9956 0.831829 16.1071C0.943316 16.2187 1.0796 16.3022 1.22955 16.351L2.45855 16.751C3.06062 16.946 3.5854 17.3268 3.9575 17.8387C4.32961 18.3505 4.52988 18.9672 4.52955 19.6V20.9C4.52956 21.0578 4.56692 21.2134 4.63856 21.354C4.71021 21.4946 4.81412 21.6163 4.94178 21.709C5.06945 21.8018 5.21726 21.863 5.37312 21.8877C5.52898 21.9124 5.68847 21.8998 5.83855 21.851L7.07455 21.451C7.67695 21.2536 8.32654 21.2527 8.92944 21.4487C9.53234 21.6446 10.0573 22.0272 10.4286 22.541L11.1906 23.589C11.2833 23.7167 11.405 23.8206 11.5456 23.8922C11.6862 23.9639 11.8417 24.0012 11.9996 24.0012C12.1574 24.0012 12.3129 23.9639 12.4535 23.8922C12.5941 23.8206 12.7158 23.7167 12.8086 23.589L13.5706 22.541C13.942 22.0274 14.467 21.645 15.0698 21.4491C15.6726 21.2532 16.3221 21.2539 16.9246 21.451L18.1606 21.851C18.3106 21.8998 18.4701 21.9124 18.626 21.8877C18.7818 21.863 18.9297 21.8018 19.0573 21.709C19.185 21.6163 19.2889 21.4946 19.3605 21.354C19.4322 21.2134 19.4695 21.0578 19.4696 20.9V19.6C19.4684 18.9665 19.6683 18.349 20.0404 17.8363C20.4126 17.3236 20.9378 16.9422 21.5406 16.747L22.7696 16.347C22.9195 16.2982 23.0558 16.2147 23.1673 16.1031C23.2788 15.9916 23.3623 15.8553 23.411 15.7053C23.4598 15.5553 23.4724 15.396 23.4478 15.2402C23.4232 15.0844 23.3621 14.9367 23.2696 14.809L22.5056 13.759ZM20.8456 14.875C19.8721 15.2072 19.0252 15.8322 18.4208 16.6645C17.8164 17.4968 17.4842 18.4956 17.4696 19.524C16.486 19.2194 15.4322 19.2266 14.4529 19.5446C13.4736 19.8625 12.6166 20.4757 11.9996 21.3C11.5355 20.6794 10.9332 20.1755 10.2404 19.8283C9.54765 19.4812 8.78346 19.3003 8.00855 19.3C7.5072 19.3004 7.00872 19.3756 6.52955 19.523C6.51481 18.4946 6.1825 17.4959 5.57814 16.6636C4.97378 15.8314 4.12693 15.2063 3.15355 14.874C3.74651 14.0326 4.06479 13.0284 4.06479 11.999C4.06479 10.9697 3.74651 9.96548 3.15355 9.12404C4.12725 8.79164 4.97433 8.16626 5.57871 7.33362C6.1831 6.50098 6.51521 5.50181 6.52955 4.47304C7.51285 4.77769 8.56629 4.77085 9.54554 4.45344C10.5248 4.13603 11.3819 3.5236 11.9996 2.70004C12.6167 3.52424 13.4737 4.13736 14.453 4.45532C15.4323 4.77329 16.486 4.78052 17.4696 4.47604C17.4837 5.50499 17.8157 6.50438 18.4201 7.33722C19.0245 8.17006 19.8717 8.79558 20.8456 9.12804C20.2533 9.96918 19.9354 10.9728 19.9354 12.0015C19.9354 13.0303 20.2533 14.0339 20.8456 14.875Z" fill="#2E2D2D"/>
<path d="M15.2936 9.29304L11.0006 13.586L8.70757 11.293C8.61532 11.1975 8.50498 11.1213 8.38297 11.0689C8.26097 11.0165 8.12975 10.9889 7.99697 10.9878C7.86419 10.9866 7.73251 11.0119 7.60962 11.0622C7.48672 11.1125 7.37507 11.1868 7.28117 11.2806C7.18728 11.3745 7.11303 11.4862 7.06275 11.6091C7.01247 11.732 6.98717 11.8637 6.98832 11.9964C6.98947 12.1292 7.01706 12.2604 7.06947 12.3824C7.12188 12.5044 7.19806 12.6148 7.29357 12.707L10.2936 15.707C10.4811 15.8945 10.7354 15.9998 11.0006 15.9998C11.2657 15.9998 11.52 15.8945 11.7076 15.707L16.7076 10.707C16.8897 10.5184 16.9905 10.2658 16.9882 10.0036C16.986 9.74144 16.8808 9.49063 16.6954 9.30522C16.51 9.11981 16.2592 9.01465 15.997 9.01237C15.7348 9.01009 15.4822 9.11088 15.2936 9.29304Z" fill="#2E2D2D"/>
</g>
<defs>
<clipPath id="clip0_2040_3">
<rect width="24" height="24" fill="white"/>
</clipPath>
</defs>
</svg>
